<svg width="512" height="512" viewBox="0 0 512 512" fill="none" xmlns="http://www.w3.org/2000/svg">
<g clip-path="url(#clip0_211_688)">
<rect width="512" height="512" fill="#1E1E1E"/>
<path class="circle-bg" d="M512 256C512 397.385 397.385 512 256 512C114.615 512 0 397.385 0 256C0 114.615 114.615 0 256 0C397.385 0 512 114.615 512 256Z" fill="#1E1E1E"/>
<path d="M201.676 241.097L192.924 243.629C192.27 244.153 190.093 244.83 186.392 245.662C176.031 247.991 170.203 246.479 168.909 241.126C166.9 234.427 164.589 226.48 161.977 217.283C159.278 207.73 156.579 198.176 153.88 188.623C151.551 178.986 148.679 168.719 145.265 157.821C141.765 146.566 139.214 139.237 137.611 135.834L140.036 131.338L156.893 123.597L189.643 116.234C191.124 115.902 192.604 115.569 194.084 115.236C195.848 114.463 197.612 113.69 199.376 112.918C200.4 112.311 203.503 111.425 208.683 110.261L222.006 107.266L226.279 107.998C227.957 106.869 229.536 106.137 231.016 105.805C232.213 105.912 233.508 105.621 234.902 104.931L237.122 104.432C238.689 104.456 240.07 104.522 241.267 104.629C242.747 104.296 243.857 104.047 244.597 103.88L258.437 103.027L262.452 102.689L266.893 101.691C273.331 102.501 278.018 103.329 280.954 104.174C283.839 108.041 285.584 111.224 286.187 113.722C287.643 114.901 289.301 117.726 291.162 122.2C293.394 126.59 295.385 131.599 297.135 137.227C298.109 139.642 299.07 142.812 300.019 146.739C300.881 150.308 302.607 157.446 305.194 168.153C308.116 175.399 309.965 180.628 310.741 183.84C311.776 188.123 312.195 190.663 311.997 191.46L313.42 197.349C313.137 197.79 313.297 199.259 313.9 201.757C314.763 205.326 315.466 207.426 316.008 208.057L316.138 208.592C317.259 213.232 314.119 216.384 306.718 218.048C304.214 218.987 301.993 219.486 300.057 219.545L294.506 220.793C293.679 220.603 292.526 220.674 291.046 221.007C289.566 221.339 286.42 222.046 281.609 223.128L268.842 225.998C268.558 226.438 267.861 226.783 266.751 227.033C266.011 227.199 264.161 227.615 261.2 228.28L256.76 229.279L215.979 237.318C212.649 238.066 209.688 238.732 207.098 239.314C204.877 239.813 203.07 240.408 201.676 241.097Z" fill="#F69413"/>
</g>
<defs>
<clipPath id="clip0_211_688">
<rect width="512" height="512"/>
</clipPath>
</defs>
</svg>
